<?xml version="1.0" encoding="utf-8"?>
<!-- Generator: Adobe Illustrator 27.7.0, SVG Export Plug-In . SVG Version: 6.00 Build 0)  -->
<svg version="1.1" id="Layer_1" xmlns="http://www.w3.org/2000/svg" xmlns:xlink="http://www.w3.org/1999/xlink" x="0px" y="0px"
	 viewBox="0 0 24 24" style="enable-background:new 0 0 24 24;" xml:space="preserve">
<style type="text/css">
	.st0{fill:#FFC300;}
</style>
<path class="st0" d="M12,5c-0.3,0-0.5-0.1-0.7-0.3S11,4.3,11,4V2c0-0.3,0.1-0.5,0.3-0.7S11.7,1,12,1s0.5,0.1,0.7,0.3S13,1.7,13,2v2
	c0,0.3-0.1,0.5-0.3,0.7S12.3,5,12,5z M17,7c-0.2-0.2-0.3-0.4-0.3-0.7s0.1-0.5,0.3-0.7l1.4-1.4c0.2-0.2,0.4-0.3,0.7-0.3
	s0.5,0.1,0.7,0.3s0.3,0.4,0.3,0.7S20,5.4,19.8,5.6L18.4,7c-0.2,0.2-0.4,0.3-0.7,0.3S17.1,7.2,17,7z M20,13c-0.3,0-0.5-0.1-0.7-0.3
	S19,12.3,19,12s0.1-0.5,0.3-0.7S19.7,11,20,11h2c0.3,0,0.5,0.1,0.7,0.3S23,11.7,23,12s-0.1,0.5-0.3,0.7C22.5,12.9,22.3,13,22,13H20z
	 M12,23c-0.3,0-0.5-0.1-0.7-0.3C11.1,22.5,11,22.3,11,22v-2c0-0.3,0.1-0.5,0.3-0.7S11.7,19,12,19s0.5,0.1,0.7,0.3
	c0.2,0.2,0.3,0.4,0.3,0.7v2c0,0.3-0.1,0.5-0.3,0.7C12.5,22.9,12.3,23,12,23z M5.7,7L4.2,5.6C4,5.4,3.9,5.2,3.9,4.9S4,4.4,4.2,4.2
	C4.4,4,4.6,3.9,4.9,3.9S5.4,4,5.6,4.2L7,5.6C7.2,5.8,7.3,6,7.3,6.3S7.2,6.9,7.1,7C6.8,7.2,6.6,7.3,6.3,7.3S5.8,7.2,5.7,7z
	 M18.4,19.8L17,18.4c-0.2-0.2-0.3-0.4-0.3-0.7c0-0.3,0.1-0.5,0.3-0.7c0.2-0.2,0.4-0.3,0.7-0.3s0.5,0.1,0.7,0.3l1.4,1.4
	c0.2,0.2,0.3,0.4,0.3,0.7c0,0.3-0.1,0.5-0.3,0.7c-0.2,0.2-0.4,0.3-0.7,0.3S18.5,20,18.4,19.8z M2,13c-0.3,0-0.5-0.1-0.7-0.3
	S1,12.3,1,12s0.1-0.5,0.3-0.7S1.7,11,2,11h2c0.3,0,0.5,0.1,0.7,0.3S5,11.7,5,12s-0.1,0.5-0.3,0.7S4.3,13,4,13H2z M4.2,19.8
	C4,19.6,4,19.4,4,19.1s0.1-0.5,0.3-0.7L5.7,17c0.2-0.2,0.4-0.3,0.7-0.3s0.5,0.1,0.7,0.3c0.2,0.2,0.3,0.4,0.3,0.7s-0.1,0.5-0.3,0.7
	l-1.4,1.4C5.5,20,5.3,20.1,5,20.1S4.4,20,4.2,19.8z M12,18c-1.7,0-3.1-0.6-4.2-1.8S6,13.7,6,12s0.6-3.1,1.8-4.3S10.3,6,12,6
	s3.1,0.6,4.2,1.8S18,10.3,18,12s-0.6,3.1-1.8,4.2S13.7,18,12,18z M12,16c1.1,0,2-0.4,2.8-1.2S16,13.1,16,12s-0.4-2-1.2-2.8
	S13.1,8,12,8s-2,0.4-2.8,1.2S8,10.9,8,12s0.4,2,1.2,2.8S10.9,16,12,16z"/>
</svg>
