<?xml version="1.0" encoding="utf-8"?>
<!-- Generator: Adobe Illustrator 27.7.0, SVG Export Plug-In . SVG Version: 6.00 Build 0)  -->
<svg version="1.1" id="Layer_1" xmlns="http://www.w3.org/2000/svg" xmlns:xlink="http://www.w3.org/1999/xlink" x="0px" y="0px"
	 viewBox="0 0 24 24" style="enable-background:new 0 0 24 24;" xml:space="preserve">
<style type="text/css">
	.st0{fill:#CCCCCC;}
</style>
<path class="st0" d="M6.5,20c-1.5,0-2.8-0.5-3.9-1.6c-1.1-1-1.6-2.3-1.6-3.8c0-1.3,0.4-2.5,1.2-3.5S4,9.4,5.2,9.1
	c0.4-1.5,1.2-2.8,2.5-3.7S10.4,4,12,4c1.9,0,3.6,0.7,5,2s2,3,2,5c1.1,0.1,2.1,0.6,2.9,1.5c0.8,0.9,1.1,1.9,1.1,3
	c0,1.2-0.4,2.3-1.3,3.2S19.8,20,18.5,20H6.5z M6.5,18h12c0.7,0,1.3-0.2,1.8-0.7c0.5-0.5,0.7-1.1,0.7-1.8c0-0.7-0.2-1.3-0.7-1.8
	c-0.5-0.5-1.1-0.7-1.8-0.7H17v-2c0-1.4-0.5-2.6-1.5-3.5S13.4,6,12,6S9.4,6.5,8.5,7.5S7,9.6,7,11H6.5c-1,0-1.8,0.3-2.5,1
	s-1,1.5-1,2.5s0.3,1.8,1,2.5C4.7,17.7,5.5,18,6.5,18z"/>
</svg>
