<?xml version="1.0" encoding="utf-8"?>
<!-- Generator: Adobe Illustrator 27.7.0, SVG Export Plug-In . SVG Version: 6.00 Build 0)  -->
<svg version="1.1" id="Layer_1" xmlns="http://www.w3.org/2000/svg" xmlns:xlink="http://www.w3.org/1999/xlink" x="0px" y="0px"
	 viewBox="0 0 24 24" style="enable-background:new 0 0 24 24;" xml:space="preserve">
<style type="text/css">
	.st0{fill:#CCCCCC;}
</style>
<path class="st0" d="M18,19c-0.3,0-0.5-0.1-0.7-0.3C17.1,18.5,17,18.3,17,18s0.1-0.5,0.3-0.7c0.2-0.2,0.4-0.3,0.7-0.3
	s0.5,0.1,0.7,0.3c0.2,0.2,0.3,0.4,0.3,0.7s-0.1,0.5-0.3,0.7C18.5,18.9,18.3,19,18,19z M7,22c-0.3,0-0.5-0.1-0.7-0.3
	C6.1,21.5,6,21.3,6,21s0.1-0.5,0.3-0.7C6.5,20.1,6.7,20,7,20c0.3,0,0.5,0.1,0.7,0.3C7.9,20.5,8,20.7,8,21s-0.1,0.5-0.3,0.7
	C7.5,21.9,7.3,22,7,22z M6,19c-0.3,0-0.5-0.1-0.7-0.3C5.1,18.5,5,18.3,5,18s0.1-0.5,0.3-0.7C5.5,17.1,5.7,17,6,17h9
	c0.3,0,0.5,0.1,0.7,0.3c0.2,0.2,0.3,0.4,0.3,0.7s-0.1,0.5-0.3,0.7C15.5,18.9,15.3,19,15,19H6z M10,22c-0.3,0-0.5-0.1-0.7-0.3
	C9.1,21.5,9,21.3,9,21s0.1-0.5,0.3-0.7C9.5,20.1,9.7,20,10,20h7c0.3,0,0.5,0.1,0.7,0.3c0.2,0.2,0.3,0.4,0.3,0.7s-0.1,0.5-0.3,0.7
	C17.5,21.9,17.3,22,17,22H10z M7.5,16c-1.5,0-2.8-0.5-3.9-1.6S2,12,2,10.5c0-1.4,0.5-2.6,1.4-3.6S5.4,5.2,6.8,5C7.3,4.1,8,3.4,9,2.8
	C9.9,2.3,10.9,2,12,2c1.5,0,2.8,0.5,3.9,1.4s1.8,2.2,2,3.6c1.1,0.1,2.1,0.6,2.9,1.4s1.2,1.9,1.2,3.1c0,1.2-0.4,2.3-1.3,3.2
	S18.8,16,17.5,16H7.5z M7.5,14h10c0.7,0,1.3-0.2,1.8-0.7c0.5-0.5,0.7-1.1,0.7-1.8s-0.2-1.3-0.7-1.8C18.8,9.2,18.2,9,17.5,9H16V8
	c0-1.1-0.4-2-1.2-2.8S13.1,4,12,4c-0.8,0-1.5,0.2-2.2,0.6s-1.2,1-1.5,1.8L8.1,7H7.5C6.5,7,5.7,7.4,5,8.1s-1,1.5-1,2.4
	c0,1,0.3,1.8,1,2.5C5.7,13.7,6.5,14,7.5,14z"/>
</svg>
