<?xml version="1.0" encoding="utf-8"?>
<!-- Generator: Adobe Illustrator 27.7.0, SVG Export Plug-In . SVG Version: 6.00 Build 0)  -->
<svg version="1.1" id="Layer_1" xmlns="http://www.w3.org/2000/svg" xmlns:xlink="http://www.w3.org/1999/xlink" x="0px" y="0px"
	 viewBox="0 0 24 24" style="enable-background:new 0 0 24 24;" xml:space="preserve">
<style type="text/css">
	.st0{fill:#CAF0F8;}
</style>
<path class="st0" d="M2,12.8c0-0.2,0.1-0.4,0.2-0.5c0.1-0.2,0.3-0.3,0.5-0.4c0.3-0.1,0.7-0.3,1-0.5C4.1,11.1,4.6,11,5.3,11
	c1,0,1.6,0.2,1.9,0.5C7.6,11.8,8.1,12,8.7,12c0.6,0,1.1-0.2,1.4-0.5S11,11,12,11c0.9,0,1.6,0.2,1.9,0.5s0.8,0.5,1.4,0.5
	c0.6,0,1.1-0.2,1.4-0.5c0.3-0.3,1-0.5,1.9-0.5c0.7,0,1.3,0.1,1.6,0.3c0.3,0.2,0.7,0.4,1,0.5c0.2,0.1,0.4,0.2,0.5,0.4
	c0.1,0.2,0.2,0.3,0.2,0.5c0,0.4-0.1,0.7-0.4,0.9c-0.3,0.2-0.5,0.3-0.8,0.2c-0.4-0.1-0.8-0.3-1.1-0.5c-0.3-0.2-0.6-0.3-1.1-0.3
	c-0.6,0-1.1,0.2-1.4,0.5c-0.3,0.3-1,0.5-1.9,0.5c-0.9,0-1.6-0.2-1.9-0.5C13.1,13.2,12.6,13,12,13c-0.6,0-1.1,0.2-1.4,0.5
	C10.3,13.8,9.7,14,8.7,14s-1.6-0.2-2-0.5C6.4,13.2,6,13,5.3,13c-0.4,0-0.8,0.1-1.1,0.3c-0.3,0.2-0.6,0.4-1.1,0.5
	c-0.3,0.1-0.6,0-0.8-0.2S2,13.1,2,12.8z M2,16.8c0-0.2,0.1-0.4,0.2-0.5c0.1-0.2,0.3-0.3,0.5-0.4c0.3-0.1,0.7-0.3,1-0.5
	C4.1,15.1,4.6,15,5.3,15c1,0,1.6,0.2,1.9,0.5C7.6,15.8,8.1,16,8.7,16c0.6,0,1.1-0.2,1.4-0.5c0.3-0.3,1-0.5,1.9-0.5
	c0.9,0,1.6,0.2,1.9,0.5c0.3,0.3,0.8,0.5,1.4,0.5c0.6,0,1.1-0.2,1.4-0.5c0.3-0.3,0.9-0.5,1.9-0.5c0.8,0,1.3,0.1,1.6,0.3
	c0.3,0.2,0.7,0.4,1,0.5c0.2,0.1,0.4,0.2,0.5,0.4c0.1,0.2,0.2,0.3,0.2,0.5c0,0.4-0.1,0.7-0.4,0.9c-0.3,0.2-0.5,0.3-0.8,0.2
	c-0.4-0.1-0.8-0.3-1.1-0.5c-0.3-0.2-0.6-0.3-1.1-0.3c-0.6,0-1.1,0.2-1.4,0.5s-1,0.5-1.9,0.5c-0.9,0-1.6-0.2-1.9-0.5S12.6,17,12,17
	c-0.6,0-1.1,0.2-1.4,0.5c-0.3,0.3-1,0.5-1.9,0.5S7,17.8,6.7,17.5S6,17,5.3,17c-0.5,0-0.8,0.1-1.1,0.3s-0.6,0.4-1,0.5
	c-0.3,0.1-0.6,0-0.8-0.2C2.1,17.4,2,17.1,2,16.8z M2,8.8c0-0.2,0.1-0.4,0.2-0.5S2.5,8,2.7,7.9c0.3-0.1,0.7-0.3,1-0.5S4.6,7,5.3,7
	c1,0,1.6,0.2,1.9,0.5C7.6,7.8,8.1,8,8.7,8c0.6,0,1.1-0.2,1.4-0.5C10.4,7.2,11,7,12,7c0.9,0,1.6,0.2,1.9,0.5C14.3,7.8,14.7,8,15.3,8
	c0.6,0,1.1-0.2,1.4-0.5C17,7.2,17.7,7,18.6,7c0.7,0,1.3,0.1,1.6,0.3s0.7,0.4,1,0.5c0.2,0.1,0.4,0.2,0.5,0.4C21.9,8.4,22,8.6,22,8.8
	c0,0.4-0.1,0.7-0.4,0.9c-0.3,0.2-0.5,0.3-0.8,0.2c-0.4-0.1-0.8-0.3-1.1-0.5C19.4,9.1,19.1,9,18.6,9c-0.6,0-1.1,0.2-1.4,0.5
	s-1,0.5-1.9,0.5c-0.9,0-1.6-0.2-1.9-0.5S12.6,9,12,9c-0.6,0-1.1,0.2-1.4,0.5S9.7,10,8.7,10s-1.6-0.2-2-0.5C6.4,9.2,6,9,5.3,9
	C4.9,9,4.6,9.1,4.3,9.3C4,9.5,3.7,9.7,3.2,9.8c-0.3,0.1-0.6,0-0.8-0.2S2,9.1,2,8.8z"/>
</svg>
