<?xml version="1.0" encoding="utf-8"?>
<!-- Generator: Adobe Illustrator 27.7.0, SVG Export Plug-In . SVG Version: 6.00 Build 0)  -->
<svg version="1.1" id="Layer_1" xmlns="http://www.w3.org/2000/svg" xmlns:xlink="http://www.w3.org/1999/xlink" x="0px" y="0px"
	 viewBox="0 0 24 24" style="enable-background:new 0 0 24 24;" xml:space="preserve">
<style type="text/css">
	.st0{fill:#CAF0F8;}
</style>
<path class="st0" d="M5,11.9C4.7,12,4.4,12.1,4.2,12s-0.5-0.3-0.6-0.5l-2.5-5C1,6.2,0.9,5.9,1,5.7c0.1-0.3,0.3-0.5,0.5-0.6
	C1.8,5,2.1,4.9,2.3,5s0.5,0.3,0.6,0.5l2.5,5c0.1,0.2,0.2,0.5,0.1,0.8S5.2,11.8,5,11.9z M8.4,18.9C8.2,19,7.9,19.1,7.7,19
	s-0.5-0.3-0.6-0.5l-2-4C5,14.2,4.9,13.9,5,13.7c0.1-0.3,0.3-0.5,0.5-0.6C5.8,13,6.1,12.9,6.3,13c0.3,0.1,0.5,0.3,0.6,0.5l2,4
	C9,17.8,9.1,18.1,9,18.3C8.9,18.6,8.7,18.8,8.4,18.9z M10.5,13.9C10.2,14,10,14.1,9.7,14s-0.5-0.3-0.6-0.5l-3.5-7
	C5.5,6.2,5.5,5.9,5.6,5.7c0.1-0.3,0.3-0.5,0.5-0.6C6.3,5,6.6,4.9,6.9,5s0.5,0.3,0.6,0.5l3.5,7c0.1,0.2,0.2,0.5,0.1,0.8
	C10.9,13.6,10.8,13.8,10.5,13.9z M12.7,8.9C12.4,9,12.1,9.1,11.9,9c-0.3-0.1-0.5-0.3-0.6-0.5l-1-2c-0.1-0.2-0.2-0.5-0.1-0.8
	c0.1-0.3,0.3-0.5,0.5-0.6C11,5,11.3,4.9,11.5,5s0.4,0.3,0.6,0.5l1,2c0.1,0.2,0.2,0.5,0.1,0.8C13.1,8.6,12.9,8.8,12.7,8.9z
	 M13.2,18.9C13,19,12.7,19,12.5,19c-0.3-0.1-0.5-0.2-0.6-0.5l-1-2c-0.1-0.2-0.2-0.5-0.1-0.8c0.1-0.3,0.3-0.5,0.5-0.6
	c0.2-0.1,0.5-0.2,0.8-0.1c0.3,0.1,0.5,0.3,0.6,0.5l1,2c0.1,0.2,0.2,0.5,0.1,0.8S13.5,18.7,13.2,18.9z M17.9,18.9
	C17.6,19,17.4,19,17.1,19c-0.3-0.1-0.5-0.2-0.6-0.5l-3.5-7c-0.1-0.2-0.2-0.5-0.1-0.8c0.1-0.3,0.3-0.5,0.5-0.6
	C13.8,10,14,9.9,14.3,10c0.3,0.1,0.5,0.3,0.6,0.5l3.5,7c0.1,0.2,0.2,0.5,0.1,0.8S18.1,18.7,17.9,18.9z M19.5,12.9
	c-0.2,0.1-0.5,0.2-0.8,0.1s-0.5-0.3-0.6-0.5l-3-6C15,6.2,14.9,5.9,15,5.7c0.1-0.3,0.3-0.5,0.5-0.6C15.8,5,16.1,4.9,16.3,5
	s0.5,0.3,0.6,0.5l3,6c0.1,0.2,0.2,0.5,0.1,0.8C19.9,12.6,19.7,12.8,19.5,12.9z M22.5,18.9c-0.2,0.1-0.5,0.2-0.8,0.1
	s-0.5-0.3-0.6-0.5l-1.5-3c-0.1-0.2-0.2-0.5-0.1-0.8c0.1-0.3,0.3-0.5,0.5-0.6c0.2-0.1,0.5-0.2,0.8-0.1c0.3,0.1,0.5,0.3,0.6,0.5l1.5,3
	c0.1,0.2,0.2,0.5,0.1,0.8S22.7,18.8,22.5,18.9z"/>
</svg>
