<?xml version="1.0" encoding="utf-8"?>
<!-- Generator: Adobe Illustrator 27.7.0, SVG Export Plug-In . SVG Version: 6.00 Build 0)  -->
<svg version="1.1" id="Layer_1" xmlns="http://www.w3.org/2000/svg" xmlns:xlink="http://www.w3.org/1999/xlink" x="0px" y="0px"
	 viewBox="0 0 24 24" style="enable-background:new 0 0 24 24;" xml:space="preserve">
<style type="text/css">
	.st0{fill:#E8E8E8;}
</style>
<path class="st0" d="M6,15.2c-0.3,0-0.6-0.1-0.9-0.4S4.8,14.3,4.8,14c0-0.4,0.1-0.6,0.4-0.9c0.2-0.2,0.5-0.4,0.9-0.4
	c0.3,0,0.6,0.1,0.9,0.4c0.2,0.2,0.4,0.5,0.4,0.9c0,0.3-0.1,0.6-0.4,0.9C6.6,15.1,6.3,15.2,6,15.2z M6,7.2c-0.3,0-0.6-0.1-0.9-0.4
	S4.8,6.3,4.8,6c0-0.3,0.1-0.6,0.4-0.9S5.7,4.7,6,4.7c0.3,0,0.6,0.1,0.9,0.4C7.1,5.4,7.2,5.6,7.2,6c0,0.3-0.1,0.6-0.4,0.9
	C6.6,7.1,6.3,7.2,6,7.2z M9,19.2c-0.3,0-0.6-0.1-0.9-0.4S7.8,18.3,7.8,18c0-0.4,0.1-0.6,0.4-0.9c0.2-0.2,0.5-0.4,0.9-0.4
	c0.4,0,0.6,0.1,0.9,0.4c0.2,0.2,0.4,0.5,0.4,0.9c0,0.3-0.1,0.6-0.4,0.9C9.6,19.1,9.4,19.2,9,19.2z M9,11.2c-0.3,0-0.6-0.1-0.9-0.4
	S7.8,10.3,7.8,10c0-0.4,0.1-0.6,0.4-0.9C8.4,8.9,8.7,8.8,9,8.8c0.4,0,0.6,0.1,0.9,0.4c0.2,0.2,0.4,0.5,0.4,0.9
	c0,0.3-0.1,0.6-0.4,0.9C9.6,11.1,9.4,11.2,9,11.2z M12,15.2c-0.3,0-0.6-0.1-0.9-0.4s-0.4-0.5-0.4-0.9c0-0.4,0.1-0.6,0.4-0.9
	c0.2-0.2,0.5-0.4,0.9-0.4c0.4,0,0.6,0.1,0.9,0.4c0.2,0.2,0.4,0.5,0.4,0.9c0,0.3-0.1,0.6-0.4,0.9C12.6,15.1,12.4,15.2,12,15.2z
	 M12,7.2c-0.3,0-0.6-0.1-0.9-0.4S10.8,6.3,10.8,6c0-0.3,0.1-0.6,0.4-0.9s0.5-0.4,0.9-0.4c0.4,0,0.6,0.1,0.9,0.4
	c0.2,0.2,0.4,0.5,0.4,0.9c0,0.3-0.1,0.6-0.4,0.9C12.6,7.1,12.4,7.2,12,7.2z M15,19.2c-0.3,0-0.6-0.1-0.9-0.4s-0.4-0.5-0.4-0.9
	c0-0.4,0.1-0.6,0.4-0.9c0.2-0.2,0.5-0.4,0.9-0.4c0.4,0,0.6,0.1,0.9,0.4c0.2,0.2,0.4,0.5,0.4,0.9c0,0.3-0.1,0.6-0.4,0.9
	C15.6,19.1,15.4,19.2,15,19.2z M15,11.2c-0.3,0-0.6-0.1-0.9-0.4s-0.4-0.5-0.4-0.9c0-0.4,0.1-0.6,0.4-0.9c0.2-0.2,0.5-0.4,0.9-0.4
	c0.4,0,0.6,0.1,0.9,0.4c0.2,0.2,0.4,0.5,0.4,0.9c0,0.3-0.1,0.6-0.4,0.9C15.6,11.1,15.4,11.2,15,11.2z M18,15.2
	c-0.3,0-0.6-0.1-0.9-0.4s-0.4-0.5-0.4-0.9c0-0.4,0.1-0.6,0.4-0.9c0.2-0.2,0.5-0.4,0.9-0.4c0.4,0,0.6,0.1,0.9,0.4
	c0.2,0.2,0.4,0.5,0.4,0.9c0,0.3-0.1,0.6-0.4,0.9S18.4,15.2,18,15.2z M18,7.2c-0.3,0-0.6-0.1-0.9-0.4S16.8,6.3,16.8,6
	c0-0.3,0.1-0.6,0.4-0.9s0.5-0.4,0.9-0.4c0.4,0,0.6,0.1,0.9,0.4s0.4,0.5,0.4,0.9c0,0.3-0.1,0.6-0.4,0.9S18.4,7.2,18,7.2z"/>
</svg>
