<?xml version="1.0" encoding="utf-8"?>
<!-- Generator: Adobe Illustrator 27.7.0, SVG Export Plug-In . SVG Version: 6.00 Build 0)  -->
<svg version="1.1" id="Layer_1" xmlns="http://www.w3.org/2000/svg" xmlns:xlink="http://www.w3.org/1999/xlink" x="0px" y="0px"
	 viewBox="0 0 24 24" style="enable-background:new 0 0 24 24;" xml:space="preserve">
<style type="text/css">
	.st0{fill:#CCCCCC;}
	.st1{fill:#FFC300;}
</style>
<path class="st0" d="M6,19h4.5c0.4,0,0.8-0.1,1.1-0.4c0.3-0.3,0.4-0.6,0.4-1.1s-0.1-0.8-0.4-1.1c-0.3-0.3-0.6-0.4-1-0.4H9.2
	l-0.5-1.2c-0.2-0.6-0.6-1-1.1-1.3C7.2,13.2,6.6,13,6,13c-0.8,0-1.5,0.3-2.1,0.9C3.3,14.5,3,15.2,3,16s0.3,1.5,0.9,2.1S5.2,19,6,19z
	 M6,21c-1.4,0-2.6-0.5-3.5-1.5S1,17.4,1,16s0.5-2.6,1.5-3.5S4.6,11,6,11c1,0,1.9,0.3,2.7,0.8c0.8,0.5,1.4,1.3,1.8,2.2
	c1,0,1.8,0.4,2.4,1.1s1,1.6,1,2.6c0,1-0.4,1.7-1.1,2.4s-1.5,1-2.4,1H6z"/>
<path class="st1" d="M12,5c-0.3,0-0.5-0.1-0.7-0.3S11,4.3,11,4V2c0-0.3,0.1-0.5,0.3-0.7S11.7,1,12,1s0.5,0.1,0.7,0.3S13,1.7,13,2v2
	c0,0.3-0.1,0.5-0.3,0.7S12.3,5,12,5z"/>
<path class="st1" d="M17,7c-0.2-0.2-0.3-0.4-0.3-0.7s0.1-0.5,0.3-0.7l1.4-1.4c0.2-0.2,0.4-0.3,0.7-0.3s0.5,0.1,0.7,0.3
	c0.2,0.2,0.3,0.4,0.3,0.7S20,5.4,19.8,5.6L18.4,7c-0.2,0.2-0.4,0.3-0.7,0.3S17.1,7.2,17,7z"/>
<path class="st1" d="M20,13c-0.3,0-0.5-0.1-0.7-0.3S19,12.3,19,12s0.1-0.5,0.3-0.7S19.7,11,20,11h2c0.3,0,0.5,0.1,0.7,0.3
	c0.2,0.2,0.3,0.4,0.3,0.7s-0.1,0.5-0.3,0.7C22.5,12.9,22.3,13,22,13H20z"/>
<path class="st1" d="M18.4,19.8L17,18.4c-0.2-0.2-0.3-0.4-0.3-0.7s0.1-0.5,0.3-0.7c0.2-0.2,0.4-0.3,0.7-0.3s0.5,0.1,0.7,0.3l1.4,1.4
	c0.2,0.2,0.3,0.4,0.3,0.7s-0.1,0.5-0.3,0.7c-0.2,0.2-0.4,0.3-0.7,0.3S18.6,20,18.4,19.8z"/>
<path class="st1" d="M5.7,7L4.2,5.6C4,5.4,4,5.2,4,4.9S4,4.4,4.2,4.2C4.4,4,4.7,3.9,4.9,3.9S5.5,4,5.7,4.2l1.4,1.4
	c0.2,0.2,0.3,0.4,0.3,0.7S7.2,6.9,7.1,7C6.9,7.2,6.6,7.3,6.3,7.3C6.1,7.3,5.8,7.2,5.7,7z"/>
<path class="st1" d="M14,17.6c-0.1-0.3-0.2-0.7-0.2-1c-0.1-0.3-0.2-0.6-0.2-1c0.8-0.3,1.4-0.8,1.8-1.5c0.5-0.7,0.7-1.4,0.7-2.2
	c0-1.1-0.4-2-1.2-2.8S13.1,8,12,8c-1,0-1.9,0.3-2.6,1c-0.8,0.7-1.2,1.5-1.3,2.5c-0.3-0.1-0.7-0.2-1-0.2S6.3,11.1,6,11
	c0.2-1.5,0.9-2.7,2.1-3.6S10.5,6,12,6c1.7,0,3.1,0.6,4.2,1.8S18,10.3,18,12c0,1.3-0.4,2.4-1.1,3.5C16.2,16.5,15.2,17.2,14,17.6z"/>
</svg>
