<?xml version="1.0" encoding="utf-8"?>
<!-- Generator: Adobe Illustrator 27.7.0, SVG Export Plug-In . SVG Version: 6.00 Build 0)  -->
<svg version="1.1" id="Layer_1" xmlns="http://www.w3.org/2000/svg" xmlns:xlink="http://www.w3.org/1999/xlink" x="0px" y="0px"
	 viewBox="0 0 24 24" style="enable-background:new 0 0 24 24;" xml:space="preserve">
<style type="text/css">
	.st0{fill:#E8E8E8;}
	.st1{fill:#CAF0F8;}
</style>
<path class="st0" d="M12.8,19c-0.3,0-0.5-0.1-0.7-0.3c-0.2-0.2-0.3-0.4-0.3-0.7s0.1-0.5,0.3-0.7c0.2-0.2,0.4-0.3,0.7-0.3
	c0.3,0,0.5,0.1,0.7,0.3c0.2,0.2,0.3,0.4,0.3,0.7s-0.1,0.5-0.3,0.7C13.3,18.9,13,19,12.8,19z M20,15c-0.3,0-0.5-0.1-0.7-0.3
	S19,14.3,19,14s0.1-0.5,0.3-0.7c0.2-0.2,0.4-0.3,0.7-0.3s0.5,0.1,0.7,0.3c0.2,0.2,0.3,0.4,0.3,0.7s-0.1,0.5-0.3,0.7
	C20.5,14.9,20.3,15,20,15z M5,13c-0.3,0-0.5-0.1-0.7-0.3C4.1,12.5,4,12.3,4,12s0.1-0.5,0.3-0.7C4.5,11.1,4.7,11,5,11
	s0.5,0.1,0.7,0.3S6,11.7,6,12s-0.1,0.5-0.3,0.7S5.3,13,5,13z M11.2,7c-0.3,0-0.5-0.1-0.7-0.3S10.2,6.3,10.2,6s0.1-0.5,0.3-0.7
	C10.7,5.1,11,5,11.2,5s0.5,0.1,0.7,0.3c0.2,0.2,0.3,0.4,0.3,0.7S12.2,6.5,12,6.7C11.8,6.9,11.5,7,11.2,7z"/>
<path class="st1" d="M8.4,18.9C8.2,19,7.9,19.1,7.7,19s-0.5-0.3-0.6-0.5l-1.5-3c-0.1-0.2-0.2-0.5-0.1-0.8c0.1-0.3,0.3-0.5,0.5-0.6
	C6.3,14,6.6,13.9,6.8,14c0.3,0.1,0.5,0.3,0.6,0.5l1.5,3C9,17.8,9.1,18.1,9,18.3C8.9,18.6,8.7,18.8,8.4,18.9z"/>
<path class="st1" d="M17.5,18.9c-0.2,0.1-0.5,0.2-0.8,0.1s-0.5-0.3-0.6-0.5l-4.5-9c-0.1-0.2-0.2-0.5-0.1-0.8
	c0.1-0.3,0.3-0.5,0.5-0.6C12.3,8,12.6,7.9,12.8,8c0.3,0.1,0.5,0.3,0.6,0.5l4.5,9c0.1,0.2,0.2,0.5,0.1,0.8S17.7,18.8,17.5,18.9z"/>
<path class="st1" d="M22.5,18.9c-0.2,0.1-0.5,0.2-0.8,0.1s-0.5-0.3-0.6-0.5l-0.5-1c-0.1-0.2-0.2-0.5-0.1-0.8s0.3-0.5,0.5-0.6
	c0.2-0.1,0.5-0.2,0.8-0.1c0.3,0.1,0.5,0.3,0.6,0.5l0.5,1c0.1,0.2,0.2,0.5,0.1,0.8S22.7,18.8,22.5,18.9z"/>
<path class="st1" d="M11.4,15.9c-0.2,0.1-0.5,0.2-0.8,0.1c-0.3-0.1-0.5-0.3-0.6-0.5l-4.5-9C5.5,6.2,5.4,5.9,5.5,5.7
	c0.1-0.3,0.3-0.5,0.5-0.6C6.3,5,6.6,4.9,6.8,5s0.5,0.3,0.6,0.5l4.5,9c0.1,0.2,0.2,0.5,0.1,0.8C11.9,15.6,11.7,15.8,11.4,15.9z"/>
<path class="st1" d="M19,11.9c-0.2,0.1-0.5,0.2-0.8,0.1s-0.5-0.3-0.6-0.5l-2.5-5C15,6.2,14.9,5.9,15,5.7c0.1-0.3,0.3-0.5,0.5-0.6
	C15.8,5,16.1,4.9,16.3,5s0.5,0.3,0.6,0.5l2.5,5c0.1,0.2,0.2,0.5,0.1,0.8S19.2,11.8,19,11.9z"/>
<path class="st1" d="M4,9.9C3.7,10,3.4,10.1,3.2,10S2.7,9.7,2.6,9.4l-1.5-3C1,6.2,0.9,5.9,1,5.7c0.1-0.3,0.3-0.5,0.5-0.6
	C1.8,5,2.1,4.9,2.3,5s0.5,0.3,0.6,0.5l1.5,3c0.1,0.2,0.2,0.5,0.1,0.8C4.4,9.6,4.2,9.8,4,9.9z"/>
</svg>
