<?xml version="1.0" encoding="utf-8"?>
<!-- Generator: Adobe Illustrator 27.7.0, SVG Export Plug-In . SVG Version: 6.00 Build 0)  -->
<svg version="1.1" id="Layer_1" xmlns="http://www.w3.org/2000/svg" xmlns:xlink="http://www.w3.org/1999/xlink" x="0px" y="0px"
	 viewBox="0 0 24 24" style="enable-background:new 0 0 24 24;" xml:space="preserve">
<style type="text/css">
	.st0{fill:#CCCCCC;}
	.st1{fill:#CAF0F8;}
</style>
<path class="st0" d="M13.9,21.9c-0.2,0.1-0.5,0.2-0.8,0.1c-0.3-0.1-0.5-0.3-0.6-0.5l-1.5-3c-0.1-0.2-0.2-0.5-0.1-0.8
	s0.3-0.5,0.5-0.6s0.5-0.2,0.8-0.1c0.3,0.1,0.5,0.3,0.6,0.5l1.5,3c0.1,0.2,0.2,0.5,0.1,0.8S14.2,21.8,13.9,21.9z M20,21.9
	c-0.2,0.1-0.5,0.2-0.8,0.1s-0.5-0.3-0.6-0.5l-1.5-3c-0.1-0.2-0.2-0.5-0.1-0.8s0.3-0.5,0.5-0.6s0.5-0.2,0.8-0.1
	c0.3,0.1,0.5,0.3,0.6,0.5l1.5,3c0.1,0.2,0.2,0.5,0.1,0.8S20.2,21.8,20,21.9z M8,21.9C7.7,22,7.4,22.1,7.2,22s-0.5-0.3-0.6-0.5
	l-1.5-3C5,18.2,4.9,17.9,5,17.7c0.1-0.3,0.3-0.5,0.5-0.6s0.5-0.2,0.8-0.1c0.3,0.1,0.5,0.3,0.6,0.5l1.5,3c0.1,0.2,0.2,0.5,0.1,0.8
	C8.4,21.6,8.2,21.8,8,21.9z M7.5,16c-1.5,0-2.8-0.5-3.9-1.6S2,12,2,10.5c0-1.4,0.5-2.6,1.4-3.6S5.4,5.2,6.8,5C7.3,4.1,8,3.4,9,2.8
	C9.9,2.3,10.9,2,12,2c1.5,0,2.8,0.5,3.9,1.4s1.8,2.2,2,3.6c1.1,0.1,2.1,0.6,2.9,1.4s1.2,1.9,1.2,3.1c0,1.2-0.4,2.3-1.3,3.2
	S18.8,16,17.5,16H7.5z M7.5,14h10c0.7,0,1.3-0.2,1.8-0.7c0.5-0.5,0.7-1.1,0.7-1.8s-0.2-1.3-0.7-1.8C18.8,9.2,18.2,9,17.5,9H16V8
	c0-1.1-0.4-2-1.2-2.8S13.1,4,12,4c-0.8,0-1.5,0.2-2.2,0.6s-1.2,1-1.5,1.8L8.1,7H7.5C6.5,7,5.7,7.4,5,8.1s-1,1.5-1,2.4
	c0,1,0.3,1.8,1,2.5C5.7,13.7,6.5,14,7.5,14z"/>
<path class="st1" d="M13.9,21.9c-0.2,0.1-0.5,0.2-0.8,0.1c-0.3-0.1-0.5-0.3-0.6-0.5l-1.5-3c-0.1-0.2-0.2-0.5-0.1-0.8
	s0.3-0.5,0.5-0.6s0.5-0.2,0.8-0.1c0.3,0.1,0.5,0.3,0.6,0.5l1.5,3c0.1,0.2,0.2,0.5,0.1,0.8S14.2,21.8,13.9,21.9z"/>
<path class="st1" d="M20,21.9c-0.2,0.1-0.5,0.2-0.8,0.1s-0.5-0.3-0.6-0.5l-1.5-3c-0.1-0.2-0.2-0.5-0.1-0.8s0.3-0.5,0.5-0.6
	s0.5-0.2,0.8-0.1c0.3,0.1,0.5,0.3,0.6,0.5l1.5,3c0.1,0.2,0.2,0.5,0.1,0.8S20.2,21.8,20,21.9z"/>
<path class="st1" d="M8,21.9C7.7,22,7.4,22.1,7.2,22s-0.5-0.3-0.6-0.5l-1.5-3C5,18.2,4.9,17.9,5,17.7c0.1-0.3,0.3-0.5,0.5-0.6
	s0.5-0.2,0.8-0.1c0.3,0.1,0.5,0.3,0.6,0.5l1.5,3c0.1,0.2,0.2,0.5,0.1,0.8C8.4,21.6,8.2,21.8,8,21.9z"/>
</svg>
