<?xml version="1.0" encoding="utf-8"?>
<!-- Generator: Adobe Illustrator 27.7.0, SVG Export Plug-In . SVG Version: 6.00 Build 0)  -->
<svg version="1.1" id="Layer_1" xmlns="http://www.w3.org/2000/svg" xmlns:xlink="http://www.w3.org/1999/xlink" x="0px" y="0px"
	 viewBox="0 0 24 24" style="enable-background:new 0 0 24 24;" xml:space="preserve">
<style type="text/css">
	.st0{fill:#CCCCCC;}
	.st1{fill:#CAF0F8;}
</style>
<path class="st0" d="M7.5,16c-1.5,0-2.8-0.5-3.9-1.6S2,12,2,10.5c0-1.4,0.5-2.6,1.4-3.6S5.4,5.2,6.8,5C7.3,4.1,8,3.4,9,2.8
	C9.9,2.3,10.9,2,12,2c1.5,0,2.8,0.5,3.9,1.4s1.8,2.2,2,3.6c1.1,0.1,2.1,0.6,2.9,1.4s1.2,1.9,1.2,3.1c0,1.2-0.4,2.3-1.3,3.2
	S18.8,16,17.5,16H7.5z M7.5,14h10c0.7,0,1.3-0.2,1.8-0.7c0.5-0.5,0.7-1.1,0.7-1.8s-0.2-1.3-0.7-1.8C18.8,9.2,18.2,9,17.5,9H16V8
	c0-1.1-0.4-2-1.2-2.8S13.1,4,12,4c-0.8,0-1.5,0.2-2.2,0.6s-1.2,1-1.5,1.8L8.1,7H7.5C6.5,7,5.7,7.4,5,8.1s-1,1.5-1,2.4
	c0,1,0.3,1.8,1,2.5C5.7,13.7,6.5,14,7.5,14z"/>
<path class="st1" d="M12.5,23c-0.4,0-0.8-0.1-1.1-0.4c-0.3-0.3-0.4-0.6-0.4-1.1c0-0.2,0-0.4,0.1-0.6c0.1-0.2,0.2-0.3,0.3-0.5
	l0.7-0.6c0.1-0.1,0.2-0.1,0.3-0.1c0.1,0,0.2,0,0.4,0.1l0.7,0.6c0.1,0.1,0.3,0.3,0.3,0.5c0.1,0.2,0.1,0.4,0.1,0.6
	c0,0.4-0.1,0.8-0.4,1.1C13.3,22.9,12.9,23,12.5,23z"/>
<path class="st1" d="M8.5,21c-0.2-0.1-0.2-0.3-0.2-0.5c0-0.2,0.1-0.4,0.2-0.5l1.9-1.9c0.1-0.1,0.3-0.2,0.5-0.2
	c0.2,0,0.4,0.1,0.5,0.2c0.1,0.1,0.2,0.3,0.2,0.5c0,0.2-0.1,0.4-0.2,0.5L9.6,21c-0.1,0.1-0.3,0.2-0.5,0.2S8.7,21.1,8.5,21z"/>
<path class="st1" d="M15.2,19.6l-0.8-0.8c-0.1-0.1-0.2-0.2-0.2-0.4s0.1-0.2,0.2-0.4l0.8-0.8c0.1-0.1,0.2-0.1,0.3-0.1
	c0.1,0,0.2,0,0.4,0.1l0.8,0.8c0.1,0.1,0.2,0.2,0.2,0.4s-0.1,0.2-0.2,0.4l-0.8,0.8c-0.1,0.1-0.2,0.1-0.4,0.1
	C15.4,19.8,15.2,19.8,15.2,19.6z"/>
<path class="st1" d="M7.7,18.9l-0.8,0.8c-0.1,0.1-0.2,0.1-0.3,0.1c-0.1,0-0.2,0-0.3-0.1l-0.8-0.8c-0.1-0.1-0.1-0.2-0.1-0.4
	s0-0.2,0.1-0.4l0.8-0.8c0.1-0.1,0.2-0.1,0.3-0.1c0.1,0,0.2,0,0.3,0.1l0.8,0.8c0.1,0.1,0.2,0.2,0.2,0.4S7.8,18.8,7.7,18.9z"/>
</svg>
