<?xml version="1.0" encoding="utf-8"?>
<!-- Generator: Adobe Illustrator 27.7.0, SVG Export Plug-In . SVG Version: 6.00 Build 0)  -->
<svg version="1.1" id="Layer_1" xmlns="http://www.w3.org/2000/svg" xmlns:xlink="http://www.w3.org/1999/xlink" x="0px" y="0px"
	 viewBox="0 0 24 24" style="enable-background:new 0 0 24 24;" xml:space="preserve">
<style type="text/css">
	.st0{fill:#CCCCCC;}
	.st1{fill:#FFC300;}
</style>
<path class="st0" d="M7.5,16c-1.5,0-2.8-0.5-3.9-1.6S2,12,2,10.5c0-1.4,0.5-2.6,1.4-3.6S5.4,5.2,6.8,5C7.3,4.1,8,3.4,9,2.8
	C9.9,2.3,10.9,2,12,2c1.5,0,2.8,0.5,3.9,1.4s1.8,2.2,2,3.6c1.1,0.1,2.1,0.6,2.9,1.4s1.2,1.9,1.2,3.1c0,1.2-0.4,2.3-1.3,3.2
	S18.8,16,17.5,16H7.5z M7.5,14h10c0.7,0,1.3-0.2,1.8-0.7c0.5-0.5,0.7-1.1,0.7-1.8s-0.2-1.3-0.7-1.8C18.8,9.2,18.2,9,17.5,9H16V8
	c0-1.1-0.4-2-1.2-2.8S13.1,4,12,4c-0.8,0-1.5,0.2-2.2,0.6s-1.2,1-1.5,1.8L8.1,7H7.5C6.5,7,5.7,7.4,5,8.1s-1,1.5-1,2.4
	c0,1,0.3,1.8,1,2.5C5.7,13.7,6.5,14,7.5,14z"/>
<path class="st1" d="M13.9,21.3l-0.9-0.4c-0.3-0.1-0.5-0.4-0.5-0.7c-0.1-0.3,0-0.6,0.2-0.9l1.8-2c0.1-0.1,0.2-0.2,0.3-0.3
	C15,17,15.1,17,15.2,17c0.4,0,0.7,0.2,0.9,0.6c0.2,0.4,0.1,0.7-0.2,1.1l-0.9,1l0.8,0.4c0.3,0.1,0.5,0.4,0.5,0.7
	c0.1,0.3,0,0.6-0.2,0.9l-1.8,2c-0.1,0.1-0.2,0.2-0.3,0.3C14,24,13.9,24,13.8,24c-0.4,0-0.7-0.2-0.9-0.6c-0.2-0.4-0.1-0.7,0.2-1.1
	L13.9,21.3z"/>
<path class="st1" d="M7.9,21.3l-0.8-0.4c-0.3-0.1-0.5-0.4-0.5-0.7c-0.1-0.3,0-0.6,0.2-0.9l1.8-2c0.1-0.1,0.2-0.2,0.3-0.3
	C9,17,9.1,17,9.2,17c0.4,0,0.7,0.2,0.9,0.6c0.2,0.4,0.1,0.7-0.2,1.1l-0.9,1l0.8,0.4c0.3,0.1,0.5,0.4,0.5,0.7c0.1,0.3,0,0.6-0.2,0.9
	l-1.8,2c-0.1,0.1-0.2,0.2-0.3,0.3C8,24,7.9,24,7.8,24c-0.4,0-0.7-0.2-0.9-0.6S6.7,22.7,7,22.4L7.9,21.3z"/>
</svg>
