<?xml version="1.0" encoding="utf-8"?>
<!-- Generator: Adobe Illustrator 27.7.0, SVG Export Plug-In . SVG Version: 6.00 Build 0)  -->
<svg version="1.1" id="Layer_1" xmlns="http://www.w3.org/2000/svg" xmlns:xlink="http://www.w3.org/1999/xlink" x="0px" y="0px"
	 viewBox="0 0 24 24" style="enable-background:new 0 0 24 24;" xml:space="preserve">
<style type="text/css">
	.st0{fill:#CAF0F8;}
</style>
<path class="st0" d="M11.5,20c-0.6,0-1.1-0.1-1.5-0.4S9.2,19,8.9,18.5c-0.2-0.3-0.2-0.7-0.1-1C9,17.2,9.3,17,9.7,17
	c0.2,0,0.3,0,0.5,0.1c0.2,0.1,0.3,0.3,0.5,0.5c0.1,0.1,0.2,0.2,0.3,0.3c0.1,0.1,0.3,0.1,0.4,0.1c0.3,0,0.5-0.1,0.7-0.3
	c0.2-0.2,0.3-0.4,0.3-0.7s-0.1-0.5-0.3-0.7C12,16.1,11.8,16,11.5,16H3c-0.3,0-0.5-0.1-0.7-0.3S2,15.3,2,15s0.1-0.5,0.3-0.7
	C2.5,14.1,2.7,14,3,14h8.5c0.8,0,1.5,0.3,2.1,0.9c0.6,0.6,0.9,1.3,0.9,2.1s-0.3,1.5-0.9,2.1S12.3,20,11.5,20z M3,10
	c-0.3,0-0.5-0.1-0.7-0.3C2.1,9.5,2,9.3,2,9s0.1-0.5,0.3-0.7C2.5,8.1,2.7,8,3,8h12.5c0.4,0,0.8-0.1,1.1-0.4S17,6.9,17,6.5
	c0-0.4-0.1-0.8-0.4-1.1S15.9,5,15.5,5c-0.3,0-0.5,0.1-0.8,0.2s-0.4,0.3-0.5,0.5c-0.1,0.2-0.3,0.4-0.5,0.6c-0.2,0.1-0.4,0.2-0.6,0.2
	c-0.4,0-0.6-0.1-0.8-0.4s-0.2-0.5-0.2-0.8c0.2-0.7,0.6-1.3,1.2-1.7C14,3.2,14.7,3,15.5,3c1,0,1.8,0.3,2.5,1c0.7,0.7,1,1.5,1,2.5
	S18.7,8.3,18,9c-0.7,0.7-1.5,1-2.5,1H3z M20,17.7c-0.4,0.1-0.7,0.1-1,0c-0.3-0.2-0.5-0.5-0.5-0.9c0-0.2,0.1-0.4,0.2-0.5
	c0.1-0.2,0.3-0.3,0.6-0.5c0.2-0.1,0.4-0.3,0.5-0.5s0.2-0.5,0.2-0.8c0-0.4-0.1-0.8-0.4-1.1c-0.3-0.3-0.6-0.4-1.1-0.4H3
	c-0.3,0-0.5-0.1-0.7-0.3S2,12.3,2,12s0.1-0.5,0.3-0.7S2.7,11,3,11h15.5c1,0,1.8,0.3,2.5,1c0.7,0.7,1,1.5,1,2.5
	c0,0.7-0.2,1.4-0.6,1.9C21.1,17,20.6,17.4,20,17.7z"/>
</svg>
